<svg width="490" height="260" viewBox="0 0 490 260" fill="none" xmlns="http://www.w3.org/2000/svg">
<path d="M366.293 95.8244C364.091 94.7715 362.764 93.9009 362.764 93.9009C362.764 93.9009 364.121 94.5992 366.293 95.8244C370.013 97.6037 376.231 99.9034 382.764 99.4008C395.764 98.4008 403.811 86.7685 430.764 67.9008C465.764 43.4008 489.764 41.4008 489.764 41.4008C489.764 41.4008 484.764 64.9008 467.264 96.9008C458.788 112.401 445.264 128.401 445.264 128.401C445.264 128.401 456.443 142.72 471.264 168.77C487.764 197.77 489.764 215.27 489.764 215.27C489.764 215.27 474.607 217.113 434.764 190.901C396.764 165.901 398.764 160.455 379.764 158.401C364.964 156.801 349.264 162.401 349.264 162.401C349.264 162.401 396.764 138.401 396.764 124.901C396.764 114.098 374.991 100.733 366.293 95.8244Z" fill="url(#paint0_linear_2_111)"/>
<path d="M417.764 124.401C378.764 98.2342 274.164 44.5008 167.764 38.9008C72.5951 33.8919 22.5453 57.1452 3.82524 87.4008C38.0415 96.4008 55.7641 126.401 69.2642 130.901C37.2641 160.401 3.8252 164.401 3.8252 164.401C20.5842 189.783 66.9345 195.87 116.264 200.901C268.264 216.401 364.764 158.567 417.764 124.401Z" fill="#3F65A7"/>
<path d="M417.764 124.401C378.764 98.2342 274.164 44.5008 167.764 38.9008C72.5951 33.8919 22.5453 57.1452 3.82524 87.4008C38.0415 96.4008 55.7641 126.401 69.2642 130.901C37.2641 160.401 3.8252 164.401 3.8252 164.401C20.5842 189.783 66.9345 195.87 116.264 200.901C268.264 216.401 364.764 158.567 417.764 124.401Z" fill="url(#paint1_linear_2_111)" fill-opacity="0.2"/>
<path d="M300.264 197.401C289.764 192.901 282.764 186.901 281.764 182.901C290.764 180.901 303.764 176.901 312.264 172.901C318.764 191.901 331.407 200.401 329.264 202.901C327.122 205.401 310.764 201.901 300.264 197.401Z" fill="url(#paint2_linear_2_111)"/>
<path d="M115.264 53.4012C115.31 53.4826 127.773 75.4587 132.764 106.401C137.764 137.401 132.764 169.401 132.764 169.401L125.779 201.779C122.632 201.517 119.46 201.227 116.264 200.901C66.9344 195.871 20.5837 189.784 3.82471 164.401C3.82471 164.401 37.2642 160.401 69.2642 130.901C55.7642 126.401 38.0417 96.4014 3.82568 87.4012C18.1759 64.2082 50.9361 45.1288 108.319 39.7421L115.264 53.4012Z" fill="white" fill-opacity="0.1"/>
<circle cx="71.2643" cy="93.9008" r="18" fill="white" stroke="#3F65A7" stroke-width="2"/>
<path d="M9.76421 97.401L7.26308 88.3954C20.8631 90.7954 38.9243 105.566 46.2577 112.566L43.2642 112.401L40.2642 107.901L36.2642 108.901L33.7642 103.401L28.2642 105.401L26.2642 97.401L19.7642 100.401L17.7642 92.901L9.76421 97.401Z" fill="#D9D9D9"/>
<path d="M9.76412 157.857L7.31708 163.749C20.9171 162.215 38.9242 152.637 46.2576 148.162L43.2641 148.268L40.2641 151.144L36.2641 150.505L33.7641 154.021L28.2641 152.743L26.2641 157.857L19.7641 155.939L17.7641 160.733L9.76412 157.857Z" fill="#D9D9D9"/>
<path d="M139.764 229.401C122.164 208.601 126.431 190.401 130.764 183.901C145.564 195.501 183.597 194.734 200.764 192.901C198.431 196.901 191.764 208.401 183.764 222.401C173.764 239.901 179.264 256.901 176.264 258.901C173.264 260.901 161.764 255.401 139.764 229.401Z" fill="url(#paint3_linear_2_111)"/>
<path d="M203.264 14.4008C172.464 29.2008 154.931 41.4008 154.264 51.4008C179.264 49.9008 229.264 58.4008 258.764 67.9008C256.764 59.0675 251.724 55.9008 253.764 30.4008C255.284 11.4008 270.764 7.90078 266.264 3.40078C261.764 -1.09922 241.764 -4.0992 203.264 14.4008Z" fill="url(#paint4_linear_2_111)"/>
<path d="M115.264 53.4008C116.061 55.1799 116.83 57.0859 117.534 58.9076C123.491 74.52 127.735 90.5342 130.305 106.797C130.486 107.958 130.656 109.118 130.816 110.283C133.156 127.743 133.576 145.557 133.042 163.448C132.973 165.426 132.892 167.418 132.764 169.401C133.222 167.466 133.619 165.505 133.986 163.552C137.214 145.87 138.186 127.63 135.769 109.603C135.604 108.4 135.423 107.203 135.224 106.004C132.413 89.2726 126.683 73.1398 118.392 58.4989C117.412 56.7947 116.353 55.0198 115.264 53.4008Z" fill="white" fill-opacity="0.3"/>
<path d="M69.1817 130.947C68.2656 131.8 67.3141 132.625 66.3625 133.435C57.7202 140.709 48.5546 147.116 38.8377 152.353C37.897 152.857 36.9583 153.345 36.0029 153.825C27.0598 158.288 17.6894 162.043 7.69522 163.931C6.45005 164.151 5.22883 164.345 3.97097 164.439C5.22328 164.612 6.47423 164.671 7.75744 164.689C18.1033 164.743 28.4042 161.855 37.752 157.389C38.76 156.905 39.7455 156.405 40.7272 155.879C50.8766 150.413 59.7502 142.816 66.9079 133.965C67.694 132.98 68.4662 131.975 69.1817 130.947Z" fill="white" fill-opacity="0.3"/>
<path d="M51.9367 117.637C51.282 117.059 50.5742 116.439 49.8983 115.853C43.7529 110.553 37.5826 105.275 31.1573 100.444C29.4084 99.1401 27.6311 97.8748 25.8142 96.7145C20.8774 93.5855 15.6808 90.804 10.051 89.0344C9.19509 88.7744 8.31482 88.5304 7.43647 88.3731C8.33016 88.3978 9.24481 88.5189 10.1377 88.6644C16.0273 89.6831 21.632 92.0883 26.7964 95.1105C28.7226 96.2448 30.5686 97.5106 32.3534 98.8411C38.9065 103.769 44.7675 109.504 50.1659 115.584C50.7584 116.256 51.3774 116.966 51.9367 117.637Z" fill="black" fill-opacity="0.3"/>
<circle cx="67.2643" cy="93.9008" r="6" fill="black"/>
<defs>
<linearGradient id="paint0_linear_2_111" x1="419.514" y1="215.298" x2="419.514" y2="41.4008" gradientUnits="userSpaceOnUse">
<stop stop-color="#3F65A7"/>
<stop offset="0.495192" stop-color="white" stop-opacity="0.6"/>
<stop offset="1" stop-color="#3F65A7"/>
</linearGradient>
<linearGradient id="paint1_linear_2_111" x1="207.514" y1="38.5141" x2="207.514" y2="203.486" gradientUnits="userSpaceOnUse">
<stop stop-color="white"/>
<stop offset="1"/>
</linearGradient>
<linearGradient id="paint2_linear_2_111" x1="305.635" y1="172.901" x2="305.635" y2="203.735" gradientUnits="userSpaceOnUse">
<stop stop-color="white" stop-opacity="0.4"/>
<stop offset="1" stop-color="#3F65A7"/>
</linearGradient>
<linearGradient id="paint3_linear_2_111" x1="163.852" y1="183.901" x2="163.852" y2="259.274" gradientUnits="userSpaceOnUse">
<stop stop-color="white" stop-opacity="0.4"/>
<stop offset="1" stop-color="#3F65A7"/>
</linearGradient>
<linearGradient id="paint4_linear_2_111" x1="210.673" y1="0" x2="210.673" y2="67.9008" gradientUnits="userSpaceOnUse">
<stop stop-color="#3F65A7"/>
<stop offset="1" stop-color="white" stop-opacity="0.4"/>
</linearGradient>
</defs>
</svg>
