<svg width="494" height="260" viewBox="0 0 494 260" fill="none" xmlns="http://www.w3.org/2000/svg">
<path d="M370.028 95.8244C367.827 94.7715 366.5 93.9008 366.5 93.9008C366.5 93.9008 367.857 94.5992 370.028 95.8244C373.748 97.6037 379.966 99.9034 386.5 99.4008C399.5 98.4008 407.546 86.7685 434.5 67.9008C469.5 43.4008 493.5 41.4008 493.5 41.4008C493.5 41.4008 488.5 64.9008 471 96.9008C462.523 112.401 449 128.401 449 128.401C449 128.401 460.179 142.72 475 168.77C491.5 197.77 493.5 215.27 493.5 215.27C493.5 215.27 478.342 217.113 438.5 190.901C400.5 165.901 402.5 160.455 383.5 158.401C368.7 156.801 353 162.401 353 162.401C353 162.401 400.5 138.401 400.5 124.901C400.5 114.098 378.727 100.733 370.028 95.8244Z" fill="url(#paint0_linear_2_84)"/>
<path d="M171.5 38.9008C65.1 33.3008 13.5 89.9008 1 118.901C2.83333 141.234 59.1498 194.696 120 200.901C272 216.401 368.5 158.567 421.5 124.401C382.5 98.2341 277.9 44.5008 171.5 38.9008Z" fill="#3F65A7"/>
<path d="M171.5 38.9008C65.1 33.3008 13.5 89.9008 1 118.901C2.83333 141.234 59.1498 194.696 120 200.901C272 216.401 368.5 158.567 421.5 124.401C382.5 98.2341 277.9 44.5008 171.5 38.9008Z" fill="url(#paint1_linear_2_84)" fill-opacity="0.2"/>
<path d="M304 197.401C293.5 192.901 286.5 186.901 285.5 182.901C294.5 180.901 307.5 176.901 316 172.901C322.5 191.901 335.143 200.401 333 202.901C330.857 205.401 314.5 201.901 304 197.401Z" fill="url(#paint2_linear_2_84)"/>
<path d="M119 53.4008C119 53.4008 131.5 75.4008 136.5 106.401C141.5 137.401 136.5 169.401 136.5 169.401L127.964 201.648C125.326 201.42 122.672 201.173 120 200.901C59.1498 194.696 2.83333 141.234 1 118.901C10.944 95.8307 45.6326 55.2944 112.97 42.5004L119 53.4008Z" fill="white" fill-opacity="0.1"/>
<circle cx="75" cy="93.9008" r="18" fill="white" stroke="#3F65A7" stroke-width="2"/>
<path d="M143.5 229.401C125.9 208.601 130.167 190.401 134.5 183.901C149.3 195.501 187.333 194.734 204.5 192.901C202.167 196.901 195.5 208.401 187.5 222.401C177.5 239.901 183 256.901 180 258.901C177 260.901 165.5 255.401 143.5 229.401Z" fill="url(#paint3_linear_2_84)"/>
<path d="M207 14.4008C176.2 29.2008 158.667 41.4008 158 51.4008C183 49.9008 233 58.4008 262.5 67.9008C260.5 59.0675 255.46 55.9008 257.5 30.4008C259.02 11.4008 274.5 7.90078 270 3.40078C265.5 -1.09922 245.5 -4.0992 207 14.4008Z" fill="url(#paint4_linear_2_84)"/>
<path d="M119 53.4008C119.796 55.1799 120.566 57.0859 121.27 58.9076C127.227 74.52 131.471 90.5342 134.041 106.797C134.222 107.958 134.392 109.118 134.552 110.283C136.892 127.743 137.311 145.557 136.777 163.448C136.709 165.426 136.628 167.418 136.5 169.401C136.958 167.466 137.354 165.505 137.722 163.552C140.949 145.87 141.922 127.63 139.505 109.603C139.34 108.4 139.159 107.203 138.959 106.004C136.149 89.2726 130.419 73.1398 122.128 58.4989C121.147 56.7947 120.089 55.0198 119 53.4008Z" fill="white" fill-opacity="0.3"/>
<path d="M67.1889 133.015C66.0483 133.072 64.8482 133.091 63.7053 133.092C53.8677 133.054 44.2917 132.125 34.938 130.31C34.3576 130.196 33.7791 130.077 33.2005 129.954C23.332 127.816 13.5636 124.612 3.77058 120.941C2.68968 120.529 1.602 120.109 0.527194 119.663C1.43251 120.396 2.37358 121.098 3.32097 121.778C11.9226 127.874 21.6462 132.568 32.1596 134.844C32.7754 134.975 33.3934 135.097 34.0152 135.209C43.9627 136.991 54.1906 136.54 63.8293 134.033C64.9467 133.734 66.1114 133.399 67.1889 133.015Z" fill="white" fill-opacity="0.3"/>
<circle cx="71" cy="93.9008" r="6" fill="black"/>
<defs>
<linearGradient id="paint0_linear_2_84" x1="423.25" y1="215.298" x2="423.25" y2="41.4008" gradientUnits="userSpaceOnUse">
<stop stop-color="#3F65A7"/>
<stop offset="0.495192" stop-color="white" stop-opacity="0.6"/>
<stop offset="1" stop-color="#3F65A7"/>
</linearGradient>
<linearGradient id="paint1_linear_2_84" x1="211.25" y1="38.514" x2="211.25" y2="203.486" gradientUnits="userSpaceOnUse">
<stop stop-color="white"/>
<stop offset="1"/>
</linearGradient>
<linearGradient id="paint2_linear_2_84" x1="309.371" y1="172.901" x2="309.371" y2="203.734" gradientUnits="userSpaceOnUse">
<stop stop-color="white" stop-opacity="0.4"/>
<stop offset="1" stop-color="#3F65A7"/>
</linearGradient>
<linearGradient id="paint3_linear_2_84" x1="167.588" y1="183.901" x2="167.588" y2="259.274" gradientUnits="userSpaceOnUse">
<stop stop-color="white" stop-opacity="0.4"/>
<stop offset="1" stop-color="#3F65A7"/>
</linearGradient>
<linearGradient id="paint4_linear_2_84" x1="214.409" y1="0" x2="214.409" y2="67.9008" gradientUnits="userSpaceOnUse">
<stop stop-color="#3F65A7"/>
<stop offset="1" stop-color="white" stop-opacity="0.4"/>
</linearGradient>
</defs>
</svg>
