<svg width="78" height="78" viewBox="0 0 78 78" fill="none" xmlns="http://www.w3.org/2000/svg">
<path fill-rule="evenodd" clip-rule="evenodd" d="M53.4496 51.6229C52.8542 52.3007 52.2188 52.9291 51.5491 53.5069C50.9789 52.7315 50.0096 52.421 49.2403 52.8171C48.3728 53.2637 48.0883 54.4396 48.6052 55.4435C48.6263 55.4846 48.6491 55.5244 48.6722 55.5635C47.4424 56.2825 46.1426 56.8611 44.7986 57.2936C44.2969 56.8111 43.6654 56.4091 42.9355 56.1401C40.6124 55.284 38.1728 56.0986 37.487 57.9595C37.4593 58.0347 37.4368 58.1109 37.4156 58.187C35.9037 58.0796 34.3944 57.7941 32.9186 57.325C33.3202 56.049 32.712 54.5158 31.3656 53.6494C29.8137 52.651 27.8629 52.9123 26.9713 54.225C24.9353 52.6717 23.2831 50.7799 22.0408 48.6808C22.9056 47.7547 23.0869 46.2142 22.3908 44.862C21.8219 43.7571 20.8101 43.0563 19.7738 42.9274C19.591 42.0969 19.4627 41.2547 19.3891 40.4062C19.8154 40.6452 20.2871 40.7896 20.7879 40.8137C22.8597 40.9135 24.6379 38.9391 24.76 36.4041C24.8821 33.8691 23.3019 31.733 21.2302 31.6331C21.0312 31.6235 20.8347 31.6334 20.6423 31.6607C21.1081 30.4683 21.698 29.3037 22.4174 28.1856C23.7196 26.1617 25.3344 24.4605 27.1565 23.1022C27.2114 23.2724 27.2798 23.4392 27.363 23.6009C28.5502 25.9062 32.2191 26.3815 35.5577 24.6625C38.0553 23.3765 39.6606 21.2267 39.8137 19.26C42.4317 19.3918 45.0505 20.0549 47.5073 21.2822C46.4293 23.2906 46.3783 25.4219 47.5766 26.7416C49.0008 28.3098 51.7361 28.234 54.1838 26.7296C54.632 27.3032 55.0462 27.8981 55.4237 28.5123C53.5679 29.7639 52.7652 31.9352 53.6302 33.6153C54.3845 35.08 56.1792 35.7291 58.0166 35.3523C58.6797 39.1101 58.2478 43.0687 56.6087 46.7128C55.069 45.8378 53.2054 46.1483 52.3652 47.4539C51.5251 48.7596 52.015 50.5843 53.4496 51.6229ZM30.5217 31.2993C31.3961 29.9403 30.8298 28.0185 29.2571 27.0066C27.6844 25.9948 25.7007 26.276 24.8263 27.635C23.952 28.9939 24.5183 30.9158 26.0909 31.9277C27.6636 32.9395 29.6473 32.6583 30.5217 31.2993ZM31.2743 44.627C34.7745 45.7479 38.2395 44.6969 39.0135 42.2799C39.7874 39.8628 37.577 36.9949 34.077 35.8741C30.5769 34.7533 27.1121 35.8038 26.338 38.2208C25.5639 40.6379 27.7741 43.5061 31.2743 44.627ZM39.6273 33.585C40.5017 32.226 39.9357 30.3037 38.363 29.2919C36.7903 28.2801 34.8063 28.5617 33.9319 29.9207C33.0578 31.2796 33.624 33.2015 35.1965 34.2134C36.7691 35.2252 38.7528 34.9439 39.6273 33.585ZM28.8948 50.8757C30.3316 50.136 30.8025 48.1886 29.9465 46.526C29.0904 44.8633 27.2317 44.1151 25.795 44.8548C24.3583 45.5945 23.8878 47.5422 24.7438 49.2048C25.5999 50.8673 27.4582 51.6153 28.8948 50.8757ZM44.1782 26.2807C45.0525 24.9218 44.9653 23.3081 43.9832 22.6762C43.0011 22.0442 41.496 22.6334 40.6216 23.9924C39.7472 25.3514 39.8349 26.9653 40.817 27.5972C41.7992 28.229 43.3039 27.6396 44.1782 26.2807ZM49.8832 35.4158C51.2565 33.2815 50.9555 30.6413 49.2113 29.519C47.4669 28.3966 44.9395 29.2171 43.5662 31.3515C42.193 33.4859 42.4938 36.1261 44.2382 37.2484C45.9825 38.3706 48.51 37.5502 49.8832 35.4158ZM35.2542 54.6623C37.5772 55.5184 40.0165 54.7041 40.7024 52.8433C41.3883 50.9824 40.0611 48.7791 37.738 47.9229C35.4149 47.0668 32.9758 47.8817 32.2899 49.7426C31.6041 51.6035 32.9312 53.8061 35.2542 54.6623ZM47.0008 47.4821C47.8751 46.1231 47.3092 44.2008 45.7365 43.189C44.1638 42.1772 42.1797 42.4588 41.3054 43.8178C40.4311 45.1767 40.9974 47.0986 42.57 48.1105C44.1426 49.1223 46.1263 48.8411 47.0008 47.4821ZM51.0677 44.6569C53.6704 45.2477 56.1112 44.2696 56.5192 42.4723C56.9269 40.675 55.1478 38.7392 52.5452 38.1484C49.9425 37.5576 47.5017 38.5357 47.0937 40.333C46.6858 42.1303 48.4651 44.066 51.0677 44.6569ZM47.159 54.7942C47.6868 53.9736 47.3448 52.8132 46.3952 52.2023C45.4457 51.5913 44.2479 51.761 43.7199 52.5815C43.1919 53.4021 43.5337 54.5628 44.4834 55.1738C45.433 55.7848 46.6311 55.6148 47.159 54.7942Z" fill="white" fill-opacity="0.3"/>
<path fill-rule="evenodd" clip-rule="evenodd" d="M59.6326 36.3097C59.7417 37.2727 59.7825 38.2318 59.7584 39.1818C58.73 39.0752 57.783 39.6218 57.5424 40.5197C57.2711 41.5322 58.0008 42.6076 59.1725 42.9216C59.2204 42.9344 59.2685 42.9451 59.3163 42.955C59 44.4523 58.5214 45.9038 57.8947 47.285C57.1487 47.3356 56.3729 47.5475 55.6318 47.9337C53.2732 49.1629 52.1592 51.6913 53.1438 53.5807C53.1836 53.657 53.228 53.7299 53.2732 53.8018C52.0958 54.9266 50.7788 55.9207 49.34 56.7556C48.6152 55.5146 46.9567 54.8911 45.2952 55.3362C43.3805 55.8492 42.1794 57.5894 42.5795 59.2465C39.8738 59.7439 37.176 59.6916 34.6094 59.1636C34.4975 57.807 33.4033 56.5503 31.8252 56.1273C30.5356 55.7818 29.2477 56.0803 28.3967 56.8114C27.6042 56.357 26.8417 55.8508 26.1138 55.2965C26.6118 55.1301 27.0672 54.8593 27.4482 54.4784C29.0237 52.9028 28.7378 50.0627 26.8099 48.1348C24.882 46.207 22.042 45.921 20.4664 47.4964C20.315 47.6477 20.181 47.8111 20.0638 47.9839C19.4518 46.7523 18.9518 45.4421 18.5821 44.0624C17.913 41.5652 17.7263 39.0524 17.9619 36.6223C18.137 36.7016 18.319 36.7677 18.5077 36.8182C21.1985 37.5391 24.2261 34.9645 25.2702 31.068C26.0512 28.1529 25.5009 25.3237 24.0474 23.7815C26.0429 21.7947 28.4615 20.1909 31.2119 19.1234C32.0306 21.4313 33.6888 23.011 35.6037 23.0111C37.8794 23.0111 39.7945 20.781 40.3659 17.7478C41.1457 17.8057 41.9179 17.9059 42.679 18.0493C42.3342 20.4291 43.4812 22.6356 45.442 23.161C47.1517 23.6189 48.9641 22.6604 49.9913 20.9271C53.4587 23.1136 56.295 26.316 58.0093 30.2512C56.2014 30.8438 55.1025 32.5502 55.534 34.1612C55.9657 35.7723 57.7707 36.7005 59.6326 36.3097ZM26.9113 39.8661C26.462 38.1892 24.5246 37.2516 22.5841 37.7716C20.6436 38.2916 19.4346 40.0722 19.8839 41.749C20.3332 43.4258 22.2706 44.3634 24.2111 43.8435C26.1516 43.3236 27.3605 41.5429 26.9113 39.8661ZM38.054 48.8928C41.4732 46.9187 43.1399 43.404 41.7767 41.0428C40.4133 38.6818 36.5362 38.3685 33.1171 40.3425C29.6981 42.3166 28.0312 45.8308 29.3943 48.1919C30.7575 50.5531 34.6347 50.8669 38.054 48.8928ZM35.3051 34.2753C34.8558 32.5985 32.9183 31.6603 30.9778 32.1803C29.0373 32.7003 27.8284 34.4815 28.2777 36.1583C28.7272 37.8349 30.6645 38.7727 32.6049 38.2528C34.5453 37.7329 35.7542 35.9521 35.3051 34.2753ZM41.305 55.2979C41.7543 53.6211 40.5458 51.8402 38.6053 51.3202C36.6648 50.8002 34.7273 51.738 34.278 53.4148C33.8287 55.0917 35.0378 56.8724 36.9783 57.3924C38.9188 57.9122 40.8557 56.9746 41.305 55.2979ZM32.7828 25.3809C32.3335 23.7042 30.9872 22.6082 29.7754 22.9328C28.5635 23.2575 27.9451 24.88 28.3944 26.5568C28.8437 28.2336 30.1905 29.3295 31.4024 29.0047C32.6141 28.6799 33.2321 27.0577 32.7828 25.3809ZM44.1679 27.4412C43.4623 24.8077 41.1453 23.1403 38.993 23.7169C36.8407 24.2936 35.6678 26.8961 36.3735 29.5297C37.0792 32.1633 39.3962 33.8308 41.5485 33.2541C43.7007 32.6773 44.8736 30.0747 44.1679 27.4412ZM48.9091 52.9751C51.2677 51.746 52.3817 49.218 51.3973 47.3286C50.4126 45.4392 47.7019 44.9035 45.3432 46.1326C42.9847 47.3619 41.8712 49.8901 42.8558 51.7795C43.8404 53.669 46.5505 54.2042 48.9091 52.9751ZM51.6823 38.4479C51.233 36.771 49.2955 35.8328 47.3549 36.3528C45.4145 36.8728 44.2056 38.654 44.6549 40.3308C45.1042 42.0076 47.0416 42.9452 48.9821 42.4253C50.9226 41.9054 52.1315 40.1247 51.6823 38.4479ZM52.3725 33.1731C54.722 31.5299 55.7069 28.8824 54.5722 27.26C53.4374 25.6377 50.613 25.6546 48.2636 27.2977C45.9141 28.9409 44.9292 31.5883 46.0639 33.2108C47.1986 34.8332 50.0231 34.8162 52.3725 33.1731ZM57.6117 43.6027C57.3403 42.5904 56.1704 42.0244 54.9988 42.3383C53.8271 42.6522 53.0971 43.7273 53.3682 44.7398C53.6395 45.7523 54.8095 46.3188 55.9812 46.0048C57.153 45.6908 57.883 44.6152 57.6117 43.6027Z" fill="white" fill-opacity="0.2"/>
<path fill-rule="evenodd" clip-rule="evenodd" d="M45.1056 15.2634C46.1838 15.5588 47.2287 15.9256 48.2359 16.358C47.6815 17.4141 47.8618 18.6624 48.7205 19.3044C49.6889 20.0284 51.1532 19.7071 51.9911 18.5864C52.0253 18.5406 52.0573 18.4937 52.0884 18.4467C53.5569 19.4264 54.9069 20.5603 56.1182 21.8228C55.853 22.6436 55.7479 23.5653 55.8444 24.5244C56.1515 27.5771 58.383 29.8526 60.8284 29.6066C60.9271 29.5966 61.0243 29.5803 61.1206 29.5626C61.8215 31.3052 62.3227 33.1415 62.6011 35.0401C60.9616 35.2854 59.5837 36.795 59.3494 38.7652C59.0794 41.0358 60.4293 43.0672 62.3756 43.348C61.7503 46.4591 60.5395 49.3266 58.8753 51.8498C57.3743 51.389 55.5598 52.0231 54.4313 53.5325C53.5091 54.766 53.2777 56.2734 53.6966 57.4979C52.8706 58.1523 52.002 58.7523 51.0967 59.2948C51.1316 58.6901 51.0364 58.0864 50.7915 57.5153C49.7781 55.1532 46.6135 54.2439 43.7232 55.4838C40.833 56.7237 39.311 59.6434 40.3241 62.0055C40.4215 62.2324 40.5391 62.4459 40.674 62.6454C39.0928 62.7738 37.4753 62.7486 35.8392 62.5541C32.8778 62.2019 30.1063 61.3264 27.6041 60.0338C27.764 59.8803 27.9126 59.7136 28.0476 59.5331C29.9714 56.9593 28.5095 52.6142 24.7826 49.828C21.9944 47.7437 18.7282 47.1222 16.4541 48.019C15.18 45.0311 14.4974 41.7538 14.5311 38.3507C17.3537 38.4616 19.7556 37.3616 20.5753 35.3104C21.5494 32.8727 19.9803 29.8668 16.9758 27.9565C17.3716 27.1458 17.8095 26.3616 18.2888 25.6077C20.6904 26.9957 23.5449 26.7114 24.947 24.836C26.1693 23.2007 25.9183 20.849 24.5013 19.0068C28.3276 16.2284 32.972 14.561 37.9211 14.4091C37.782 16.5993 39.1395 18.5068 41.0498 18.7342C42.9603 18.9613 44.7272 17.4252 45.1056 15.2634ZM34.9093 51.8359C32.9208 51.5995 31.0872 53.2734 30.8136 55.5746C30.54 57.8757 31.9299 59.933 33.9184 60.1694C35.9068 60.4058 37.7404 58.7319 38.0141 56.4308C38.2878 54.1296 36.8978 52.0724 34.9093 51.8359ZM49.3479 43.7639C48.6968 39.2563 45.6454 35.9666 42.5326 36.4162C39.4201 36.866 37.4249 40.8849 38.0759 45.3923C38.7271 49.8997 41.7779 53.1894 44.8905 52.7399C48.0033 52.2903 49.999 48.2715 49.3479 43.7639ZM32.5135 40.4517C30.525 40.2152 28.6907 41.889 28.4171 44.1902C28.1435 46.4914 29.5341 48.5487 31.5225 48.7852C33.5109 49.0214 35.3446 47.3475 35.6183 45.0465C35.8919 42.7454 34.5018 40.6883 32.5135 40.4517ZM57.6005 43.023C55.9966 41.824 53.5717 42.3563 52.1841 44.2123C50.7965 46.0684 50.9718 48.5451 52.5756 49.7441C54.1795 50.9432 56.6045 50.4102 57.9921 48.5541C59.3795 46.6981 59.2042 44.222 57.6005 43.023ZM21.9064 39.3464C19.918 39.11 18.1678 40.083 17.9967 41.52C17.8259 42.9571 19.2991 44.314 21.2876 44.5505C23.2761 44.7869 25.0264 43.8133 25.1973 42.3762C25.368 40.9392 23.8948 39.5828 21.9064 39.3464ZM28.9865 28.0328C25.8635 27.6615 23.0856 29.4297 22.7821 31.982C22.4786 34.5343 24.7644 36.9046 27.8874 37.276C31.0105 37.6473 33.7884 35.8792 34.0919 33.3268C34.3953 30.7745 32.1095 28.4042 28.9865 28.0328ZM58.3671 33.8835C58.06 30.8309 55.829 28.5556 53.3837 28.8014C50.9383 29.0474 49.2043 31.7217 49.5113 34.7744C49.8185 37.827 52.0501 40.1019 54.4955 39.8559C56.9408 39.6099 58.6741 36.9361 58.3671 33.8835ZM43.9929 24.6949C42.0044 24.4584 40.1701 26.1322 39.8965 28.4334C39.6229 30.7346 41.0135 32.7919 43.002 33.0284C44.9904 33.2647 46.824 31.5908 47.0977 29.2897C47.3713 26.9886 45.9813 24.9314 43.9929 24.6949ZM38.6382 21.6977C37.8837 18.4776 35.4693 16.2895 33.2457 16.8105C31.0222 17.3317 29.8314 20.3643 30.5858 23.5842C31.3403 26.8043 33.7546 28.9925 35.9783 28.4715C38.2019 27.9504 39.3926 24.9177 38.6382 21.6977ZM52.0527 20.5499C50.8521 20.4073 49.745 21.4181 49.5798 22.8075C49.4146 24.1969 50.2537 25.4391 51.4543 25.5821C52.655 25.7249 53.7626 24.714 53.9278 23.3245C54.093 21.935 53.2533 20.6926 52.0527 20.5499Z" fill="white" fill-opacity="0.2"/>
<path fill-rule="evenodd" clip-rule="evenodd" d="M28.2079 12.0609C29.4343 11.5787 30.6795 11.1876 31.9355 10.885C32.1574 12.2732 33.2086 13.3244 34.4724 13.3245C35.8976 13.3245 37.0531 11.9877 37.0531 10.3385C37.0531 10.2711 37.0502 10.2042 37.0464 10.1379C39.1241 10.0264 41.1988 10.1441 43.2333 10.4811C43.5622 11.4431 44.1135 12.3873 44.8814 13.2247C47.3257 15.8897 51.0383 16.463 53.1731 14.505C53.2593 14.4259 53.3395 14.342 53.4179 14.2573C55.3094 15.4077 57.0785 16.7875 58.6812 18.3833C57.3066 19.7719 57.0712 22.1694 58.2404 24.1947C59.588 26.5288 62.2961 27.4938 64.3315 26.3853C65.9368 29.7636 66.8175 33.325 67.0272 36.8815C65.285 37.5058 64.0196 39.385 64.0195 41.6064C64.0195 43.4216 64.8648 45.0079 66.1244 45.8683C65.8065 47.0689 65.41 48.2484 64.9382 49.3994C64.5444 48.804 64.0285 48.3012 63.3942 47.935C60.7706 46.4203 57.1414 47.7952 55.2879 51.0055C53.4345 54.2157 54.0582 58.0461 56.6817 59.561C56.9337 59.7065 57.1955 59.825 57.4636 59.9181C56.0615 61.1552 54.5168 62.273 52.835 63.244C49.7908 65.0015 46.5566 66.1309 43.2822 66.6766C43.3248 66.4188 43.3474 66.1566 43.3474 65.8909C43.3472 62.1035 38.9006 59.0333 33.416 59.0333C29.3129 59.0334 25.7909 60.7517 24.277 63.2033C20.9656 61.2818 18.0082 58.6697 15.6384 55.4333C18.3812 53.546 19.8724 50.8124 19.1986 48.2976C18.3978 45.3089 14.7951 43.5786 10.6107 43.8956C10.4122 42.851 10.2721 41.8016 10.1926 40.7517C13.4393 40.3671 15.9334 38.0842 15.9334 35.3242C15.9332 32.9178 14.0367 30.8749 11.3988 30.1358C13.0501 24.8127 16.2578 19.9609 20.8227 16.3247C22.237 18.4905 24.8647 19.3332 26.8286 18.1996C28.7925 17.0658 29.3763 14.3687 28.2079 12.0609ZM44.3929 53.782C42.3489 54.9622 41.7992 57.8364 43.165 60.2019C44.5307 62.5673 47.2947 63.5285 49.3387 62.3484C51.3827 61.1683 51.9323 58.294 50.5667 55.9285C49.201 53.5631 46.437 52.602 44.3929 53.782ZM52.3266 35.972C48.5308 32.1762 43.3285 31.2242 40.7073 33.8454C38.0864 36.4667 39.0392 41.6687 42.8348 45.4644C46.6305 49.2598 51.8322 50.2123 54.4534 47.5913C57.0747 44.9701 56.1224 39.7678 52.3266 35.972ZM34.0969 44.7259C32.0528 45.906 31.5025 48.7806 32.8683 51.1462C34.234 53.5116 36.9987 54.4724 39.0427 53.2923C41.0865 52.112 41.6362 49.2377 40.2707 46.8724C38.905 44.507 36.1409 43.546 34.0969 44.7259ZM59.5943 29.4485C57.2341 29.4485 55.3205 31.6624 55.3205 34.3938C55.3205 37.1252 57.2338 39.3396 59.5941 39.3396C61.9544 39.3396 63.8675 37.1251 63.8675 34.3937C63.8674 31.6624 61.9545 29.4486 59.5943 29.4485ZM23.3035 51.1683C21.2596 52.3484 20.294 54.5021 21.1467 55.9794C21.9996 57.4566 24.348 57.6979 26.3921 56.5178C28.4361 55.3376 29.4014 53.1833 28.5485 51.706C27.6955 50.2289 25.3475 49.9882 23.3035 51.1683ZM22.003 35.4913C18.7927 37.3447 17.4182 40.9744 18.9329 43.5981C20.4477 46.2217 24.2783 46.8462 27.4886 44.9927C30.6989 43.1392 32.0735 39.5096 30.5587 36.8859C29.0439 34.2623 25.2132 33.6378 22.003 35.4913ZM53.8679 20.2795C51.4238 17.6146 47.7118 17.0411 45.5769 18.9988C43.442 20.9568 43.6924 24.7053 46.1367 27.3704C48.5809 30.0353 52.2931 30.6079 54.428 28.65C56.5628 26.692 56.3121 22.9446 53.8679 20.2795ZM33.8136 21.7496C31.7696 22.9298 31.2192 25.8044 32.585 28.1699C33.9507 30.5353 36.7154 31.4961 38.7594 30.316C40.8033 29.1358 41.353 26.2615 39.9874 23.8961C38.6217 21.5307 35.8577 20.5696 33.8136 21.7496ZM26.6434 22.6993C23.6587 20.1919 19.8352 19.8301 18.1037 21.8913C16.3725 23.9524 17.3886 27.6558 20.3732 30.163C23.358 32.6704 27.1815 33.0322 28.9129 30.971C30.6443 28.9099 29.6281 25.2066 26.6434 22.6993ZM38.497 12.1486C37.263 12.8613 36.9313 14.5968 37.7558 16.025C38.5804 17.4533 40.2493 18.0338 41.4835 17.3214C42.7178 16.6088 43.05 14.8729 42.2253 13.4446C41.4007 12.0163 39.7312 11.436 38.497 12.1486Z" fill="#3F65A7" fill-opacity="0.5"/>
<path fill-rule="evenodd" clip-rule="evenodd" d="M43.2193 8.46539C44.6105 8.67425 45.9706 8.97734 47.2934 9.36801C46.7575 10.7699 47.1683 12.3029 48.3367 12.9776C49.6543 13.7384 51.4362 13.1193 52.3166 11.5944C52.3526 11.5321 52.3856 11.4688 52.4175 11.4055C54.3979 12.4114 56.2533 13.6277 57.9544 15.0252C57.745 16.0902 57.7506 17.2575 58.0137 18.4416C58.851 22.2103 61.9774 24.7221 64.9964 24.0513C65.1183 24.0243 65.2372 23.9895 65.3549 23.953C66.4897 26.0263 67.3887 28.2463 68.0187 30.5773C66.0065 31.1273 64.5092 33.2184 64.5091 35.715C64.5091 38.5923 66.4977 40.93 68.9713 40.9916C68.6522 44.972 67.5655 48.7348 65.8609 52.1349C63.9169 51.7821 61.7438 52.8441 60.5579 54.8978C59.589 56.576 59.5238 58.494 60.2291 59.9618C59.2943 60.9021 58.2981 61.781 57.2475 62.5933C57.2012 61.8326 56.9927 61.0923 56.6017 60.4152C54.9845 57.6143 50.8952 56.9482 47.468 58.9269C44.0408 60.9056 42.5728 64.78 44.1897 67.581C44.3451 67.85 44.5238 68.0993 44.722 68.3285C42.7654 68.7239 40.7405 68.9328 38.6673 68.9328C34.9146 68.9327 31.3215 68.2505 28.0029 67.0072C28.1798 66.7916 28.3408 66.5612 28.4826 66.3156C30.5041 62.8138 28.0318 57.6017 22.961 54.6741C19.1673 52.4839 14.9938 52.1926 12.2856 53.6511C10.2497 50.1069 8.90971 46.1134 8.44629 41.8561C11.9896 41.5753 14.8274 39.8439 15.5468 37.1591C16.4018 33.9685 13.9945 30.4457 9.95658 28.5051C10.3307 27.4334 10.7613 26.3884 11.2482 25.3752C14.4553 26.7527 17.9798 25.9734 19.4531 23.4216C20.7374 21.1967 20.0744 18.2955 18.0301 16.2041C22.3983 12.164 27.9538 9.39056 34.1152 8.46539C34.2668 11.2227 36.2465 13.4045 38.6673 13.4048C41.0883 13.4048 43.0677 11.2228 43.2193 8.46539ZM35.9128 55.6784C33.393 55.6784 31.3506 58.0424 31.3506 60.9584C31.3507 63.8744 33.3931 66.2385 35.9128 66.2385C38.4325 66.2384 40.4749 63.8743 40.475 60.9584C40.475 58.0424 38.4326 55.6785 35.9128 55.6784ZM52.7548 43.4469C51.2715 37.9113 46.9699 34.2542 43.1473 35.2785C39.3249 36.303 37.429 41.6211 38.9122 47.1565C40.3955 52.6918 44.6964 56.349 48.5189 55.325C52.3415 54.3007 54.2381 48.9825 52.7548 43.4469ZM31.2277 41.8095C28.7079 41.8095 26.6646 44.1735 26.6646 47.0896C26.6647 50.0055 28.708 52.3696 31.2277 52.3696C33.7473 52.3694 35.7898 50.0054 35.7899 47.0896C35.7899 44.1737 33.7473 41.8097 31.2277 41.8095ZM62.9564 41.2951C60.7743 40.0352 57.8233 41.0606 56.3653 43.5859C54.9072 46.1113 55.4942 49.1799 57.6764 50.4398C59.8586 51.6997 62.8095 50.6735 64.2676 48.1481C65.7254 45.6229 65.1384 42.555 62.9564 41.2951ZM17.8097 42.0044C15.2901 42.0045 13.2477 43.4803 13.2475 45.3013C13.2475 47.1224 15.29 48.599 17.8097 48.599C20.3295 48.599 22.3719 47.1224 22.3719 45.3013C22.3718 43.4803 20.3294 42.0044 17.8097 42.0044ZM24.9755 26.816C21.0181 26.816 17.8098 29.4381 17.8097 32.6724C17.8097 35.9067 21.018 38.5287 24.9755 38.5287C28.933 38.5287 32.1413 35.9067 32.1413 32.6724C32.1412 29.4381 28.933 26.816 24.9755 26.816ZM62.5564 29.7611C61.7192 25.9925 58.5934 23.481 55.5745 24.1514C52.5555 24.8221 50.7861 28.4214 51.6234 32.1901C52.4607 35.9587 55.5872 38.4697 58.6061 37.799C61.6251 37.1283 63.3936 33.5298 62.5564 29.7611ZM43.2303 20.4155C40.7105 20.4155 38.6673 22.7795 38.6673 25.6955C38.6674 28.6115 40.7106 30.9756 43.2303 30.9756C45.75 30.9755 47.7925 28.6115 47.7926 25.6955C47.7926 22.7795 45.7501 20.4156 43.2303 20.4155ZM36.0942 17.4661C34.673 13.5546 31.3311 11.1792 28.6301 12.1606C25.9292 13.1422 24.8919 17.1085 26.3129 21.0198C27.7341 24.9312 31.076 27.3066 33.7771 26.3252C36.478 25.3438 37.5153 21.3774 36.0942 17.4661ZM52.6853 14.0387C51.164 14.0389 49.9309 15.4665 49.9309 17.2271C49.9309 18.9877 51.1639 20.4153 52.6853 20.4155C54.2068 20.4155 55.4406 18.9879 55.4406 17.2271C55.4406 15.4663 54.2068 14.0387 52.6853 14.0387Z" fill="white" fill-opacity="0.2"/>
</svg>
