<svg id="fish" width="494" height="386" viewBox="0 0 494 386" fill="none" xmlns="http://www.w3.org/2000/svg">

<circle id="collision_area" cx="192.557" cy="192.557" r="192.057" fill="transparent"/>

<path id="fin_back" d="M370.028 146.354C367.827 144.902 366.5 143.701 366.5 143.701C366.5 143.701 367.857 144.664 370.028 146.354C373.748 148.809 379.966 151.982 386.5 151.288C399.5 149.909 407.546 133.861 434.5 107.83C469.5 74.0295 493.5 71.2703 493.5 71.2703C493.5 71.2703 488.5 103.691 471 147.839C462.523 169.223 449 191.297 449 191.297C449 191.297 460.179 211.053 475 246.991C491.5 287 493.5 311.144 493.5 311.144C493.5 311.144 478.342 313.687 438.5 277.524C400.5 243.033 402.5 235.52 383.5 232.686C368.7 230.479 353 238.205 353 238.205C353 238.205 400.5 205.094 400.5 186.469C400.5 171.564 378.727 153.126 370.028 146.354Z" fill="url(#paint0_linear_9_18)"/>

<g id="shape_cruise" visibility="visible">
    <path id="body_cruise" d="M171.5 67.8212C65.0999 60.0953 13.4999 138.182 0.999878 178.191C2.83321 209.003 59.1497 282.759 120 291.32C272 312.704 368.5 232.916 421.5 185.779C382.5 149.679 277.9 75.5471 171.5 67.8212Z" fill="currentColor"/>
    <path id="shade_body_cruise" d="M171.5 67.8212C65.0999 60.0953 13.4999 138.182 0.999878 178.191C2.83321 209.003 59.1497 282.759 120 291.32C272 312.704 368.5 232.916 421.5 185.779C382.5 149.679 277.9 75.5471 171.5 67.8212Z" fill="url(#paint2_linear_9_18)" fill-opacity="0.2"/>
    <path id="shade_head" d="M119 87.8258C119 87.8258 131.5 118.177 136.5 160.946C141.5 203.714 136.5 247.862 136.5 247.862L127.964 292.351C125.326 292.037 122.672 291.696 120 291.32C59.1497 282.759 2.83321 209.003 0.999878 178.191C10.9439 146.363 45.6325 90.4383 112.97 72.7873L119 87.8258Z" fill="white" fill-opacity="0.1"/>
    <path id="lip_bottom" d="M67.1888 197.663C66.0807 197.778 64.9413 197.839 63.7999 197.885C54.0179 198.186 44.2296 197.223 34.6317 194.703C34.2426 194.6 33.8542 194.493 33.4664 194.383C23.5211 191.523 13.6149 186.813 3.77819 181.196C2.6921 180.567 1.60126 179.923 0.527129 179.243C1.45273 180.205 2.41945 181.13 3.39451 182.03C12.2403 190.092 22.3348 196.496 33.0641 199.581C33.4818 199.699 33.9009 199.812 34.3214 199.919C44.6123 202.518 54.8927 201.971 64.0674 198.891C65.1376 198.525 66.1929 198.127 67.1888 197.663Z" fill="white" fill-opacity="0.3"/>
    <path id="decor_head" d="M119 87.8258C119.837 90.3565 120.617 93.0022 121.349 95.5842C127.374 117.182 131.511 139.122 134.03 161.235C134.246 163.156 134.445 165.077 134.631 167.004C136.891 191.061 137.287 215.393 136.77 239.755C136.704 242.447 136.625 245.16 136.5 247.862C136.957 245.195 137.351 242.505 137.717 239.831C140.93 215.62 141.907 190.987 139.608 166.524C139.419 164.565 139.207 162.611 138.97 160.657C136.216 138.213 130.658 116.163 122.247 95.2752C121.228 92.781 120.146 90.2337 119 87.8258Z" fill="white" fill-opacity="0.3"/>
</g>

<g id="shape_burst" visibility="hidden">
    <path id="body_burst" d="M421.5 185.778C382.5 149.742 277.9 75.7426 171.5 68.0305C76.3307 61.1324 26.2809 93.1561 7.56084 134.823C41.7771 147.218 59.4997 188.533 72.9998 194.73C40.9997 235.356 7.56079 240.865 7.56079 240.865C24.3198 275.821 70.6701 284.204 120 291.131C272 312.477 368.5 232.831 421.5 185.778Z" fill="currentColor"/>
    <path id="shade_body_burst" d="M421.5 185.778C382.5 149.742 277.9 75.7426 171.5 68.0305C76.3307 61.1324 26.2809 93.1561 7.56084 134.823C41.7771 147.218 59.4997 188.533 72.9998 194.73C40.9997 235.356 7.56079 240.865 7.56079 240.865C24.3198 275.821 70.6701 284.204 120 291.131C272 312.477 368.5 232.831 421.5 185.778Z" fill="url(#paint1_linear_9_18)" fill-opacity="0.2"/>
    <path id="shade_head_burst" d="M118.939 88.0496C118.985 88.1616 131.448 118.414 136.439 161.01C141.439 203.684 136.439 247.736 136.439 247.736L129.454 292.307C126.307 291.947 123.135 291.547 119.939 291.099C70.6092 284.174 24.2585 275.794 7.49951 240.853C7.49951 240.853 40.939 235.346 72.939 194.736C59.439 188.542 41.7165 147.244 7.50049 134.854C21.8507 102.926 54.6109 76.6618 111.994 69.2463L118.939 88.0496Z" fill="white" fill-opacity="0.1"/>
    <path id="teeth_top" d="M13.439 148.62L10.9379 136.223C24.5379 139.527 42.5991 159.86 49.9325 169.496L46.939 169.269L43.939 163.074L39.939 164.451L37.439 156.879L31.939 159.633L29.939 148.62L23.439 152.75L21.439 142.425L13.439 148.62Z" fill="#D9D9D9"/>
    <path id="teeth_bottom" d="M13.439 231.843L10.9919 239.955C24.5919 237.843 42.5991 224.658 49.9324 218.498L46.939 218.643L43.939 222.603L39.939 221.723L37.439 226.563L31.939 224.803L29.939 231.843L23.439 229.203L21.439 235.803L13.439 231.843Z" fill="#D9D9D9"/>
    <path id="lip_bottom" d="M72.8566 194.799C72.0026 195.922 71.1051 197.03 70.2089 198.116C62.0746 207.859 53.2418 216.827 43.5379 224.259C42.2613 225.23 40.9705 226.17 39.6573 227.079C30.9515 233.066 21.5886 238.088 11.5187 240.326C10.2324 240.594 8.94659 240.823 7.64584 240.904C8.9093 241.097 10.2048 241.127 11.5138 241.102C21.8138 240.772 32.2509 236.475 41.4473 230.414C42.851 229.487 44.2206 228.512 45.5623 227.491C55.7728 219.675 64.232 209.537 70.7854 198.53C71.5055 197.305 72.213 196.055 72.8566 194.799Z" fill="white" fill-opacity="0.3"/>
    <path id="lip_top" d="M55.6116 176.477C54.9834 175.695 54.3053 174.859 53.6569 174.067C47.738 166.872 41.7841 159.738 35.4525 153.076C33.5222 151.062 31.5366 149.088 29.4777 147.288C24.7059 143.152 19.5778 139.411 13.8807 137.082C12.9816 136.726 12.0421 136.392 11.1113 136.192C11.1113 136.192 11.1113 136.192 11.1113 136.192C12.0458 136.256 13.0155 136.467 13.9491 136.709C19.8852 138.33 25.4601 141.781 30.4826 145.853C32.6838 147.65 34.7529 149.642 36.7233 151.698C43.182 158.495 48.8025 166.028 53.9374 173.851C54.4982 174.713 55.0833 175.621 55.6116 176.477Z" fill="black" fill-opacity="0.3"/>
</g>

<path id="fin_bottom_small" d="M304 286.491C293.5 280.283 286.5 272.005 285.5 266.487C294.5 263.728 307.5 258.209 316 252.691C322.5 278.904 335.143 290.63 333 294.079C330.857 297.529 314.5 292.7 304 286.491Z" fill="url(#paint3_linear_9_18)"/>
<path id="fin_bottom" d="M143.5 343.404C125.9 314.515 130.167 289.238 134.5 280.21C149.3 296.321 187.333 295.256 204.5 292.71C202.167 298.266 195.5 314.237 187.5 333.682C177.5 357.987 183 381.597 180 384.375C177 387.153 165.5 379.514 143.5 343.404Z" fill="url(#paint4_linear_9_18)"/>
<path id="fin_bottom_top" d="M207 32.7976C176.2 53.3528 158.667 70.2969 158 84.1856C183 82.1023 233 93.9076 262.5 107.102C260.5 94.8336 255.46 90.4355 257.5 55.0194C259.02 28.631 274.5 23.7699 270 17.5201C265.5 11.2702 245.5 7.10359 207 32.7976Z" fill="url(#paint5_linear_9_18)"/>

<g id="eye">
    <circle id="eyeball" cx="85.0001" cy="138.109" r="18" fill="white" stroke="currentColor" stroke-width="2"/>
    <circle id="iris" cx="81" cy="138.109" r="6" fill="black"/>
</g>

<defs>
    <linearGradient id="paint0_linear_9_18" x1="423.25" y1="311.182" x2="423.25" y2="71.2703" gradientUnits="userSpaceOnUse">
    <stop stop-color="currentColor"/>
    <stop offset="0.495192" stop-color="white" stop-opacity="0.6"/>
    <stop offset="1" stop-color="currentColor"/>
    </linearGradient>
    <linearGradient id="paint1_linear_9_18" x1="211.25" y1="67.4979" x2="211.25" y2="294.692" gradientUnits="userSpaceOnUse">
    <stop stop-color="white"/>
    <stop offset="1"/>
    </linearGradient>
    <linearGradient id="paint2_linear_9_18" x1="211.25" y1="67.2876" x2="211.25" y2="294.887" gradientUnits="userSpaceOnUse">
    <stop stop-color="white"/>
    <stop offset="1"/>
    </linearGradient>
    <linearGradient id="paint3_linear_9_18" x1="309.371" y1="252.691" x2="309.371" y2="295.23" gradientUnits="userSpaceOnUse">
    <stop stop-color="white" stop-opacity="0.4"/>
    <stop offset="1" stop-color="currentColor"/>
    </linearGradient>
    <linearGradient id="paint4_linear_9_18" x1="167.588" y1="280.21" x2="167.588" y2="384.894" gradientUnits="userSpaceOnUse">
    <stop stop-color="white" stop-opacity="0.4"/>
    <stop offset="1" stop-color="currentColor"/>
    </linearGradient>
    <linearGradient id="paint5_linear_9_18" x1="214.409" y1="12.7968" x2="214.409" y2="107.102" gradientUnits="userSpaceOnUse">
    <stop stop-color="currentColor"/>
    <stop offset="1" stop-color="white" stop-opacity="0.4"/>
    </linearGradient>
</defs>
</svg>
