<!-- @ds:277a51d7 -->
<svg width="222" height="315" viewBox="0 0 222 315" fill="none" xmlns="http://www.w3.org/2000/svg">
<path d="M43.8944 235.747C38.5417 228.502 33.7556 220.971 29.5355 213.213C38.3165 209.293 43.4034 200.484 41.1661 192.135C38.644 182.722 27.769 177.458 16.8766 180.377C16.4312 180.496 15.9932 180.629 15.5618 180.772C11.1501 167.25 8.25715 153.342 6.88251 139.313C12.6548 135.438 17.9157 130.124 22.0874 123.569C35.3625 102.711 32.5789 77.1808 15.8698 66.5465C15.1926 66.1155 14.5012 65.719 13.8003 65.3498C18.0498 50.828 24.0219 36.7032 31.7217 23.2997C43.326 29.9304 59.5885 27.2403 70.8991 15.9296C83.9316 2.89682 85.5175 -16.7087 74.588 -28.1886C94.0546 -44.7635 116.013 -56.8874 139.124 -64.5645C146.327 -54.1537 160.985 -49.115 175.663 -53.0478C187.654 -56.261 196.639 -64.6543 200.089 -74.4992C208.578 -74.5242 217.069 -73.9965 225.502 -72.9179C222.264 -69.2619 219.861 -64.9576 218.564 -60.1175C213.203 -40.1096 228.704 -18.5713 253.186 -12.0115C277.667 -5.45168 301.859 -16.354 307.221 -36.3617C307.736 -38.2852 308.057 -40.2231 308.198 -42.1602C318.85 -35.0896 328.96 -26.8613 338.349 -17.4722C355.344 -0.477656 368.537 18.8782 377.935 39.5376C376.155 39.7124 374.382 40.0315 372.625 40.5023C347.611 47.2049 335.201 82.0028 344.907 118.225C352.168 145.324 369.75 165.543 388.619 171.203C381.791 196.467 369.789 220.624 352.614 241.999C335.294 227.217 314.585 222.218 299.165 231.121C280.842 241.699 275.784 268.56 285.286 295.637C278.743 298.794 272.061 301.564 265.272 303.946C256.986 283.186 237.493 270.756 219.266 275.639C203.37 279.899 193.222 296.045 193.012 314.779C154.939 313.291 117.22 300.693 85.1311 276.983C96.9378 263.809 97.8541 244.954 86.8885 233.989C75.9228 223.023 57.0686 223.94 43.8944 235.747ZM290.802 55.0277C302.214 66.4387 322.169 64.9835 335.375 51.778C348.581 38.5724 350.036 18.6166 338.625 7.20542C327.214 -4.20573 307.257 -2.75126 294.051 10.4544C280.846 23.66 279.391 43.6166 290.802 55.0277ZM159.14 34.1445C140.788 65.93 143.705 101.971 165.655 114.644C187.605 127.316 220.276 111.822 238.627 80.036C256.978 48.2506 254.061 12.2104 232.111 -0.46227C210.161 -13.1348 177.491 2.35908 159.14 34.1445ZM249.213 139.05C260.624 150.462 280.58 149.006 293.786 135.801C306.991 122.595 308.446 102.639 297.035 91.2282C285.624 79.8172 265.668 81.2723 252.463 94.4779C239.257 107.683 237.802 127.639 249.213 139.05ZM103.195 -2.306C107.372 13.2816 125.382 21.9998 143.421 17.1664C161.46 12.3328 172.699 -4.22249 168.522 -19.8103C164.345 -35.3982 146.335 -44.1161 128.296 -39.2827C110.257 -34.4491 99.0186 -17.8939 103.195 -2.306ZM310.859 198.931C322.27 210.343 338.206 212.907 346.453 204.66C354.7 196.413 352.136 180.477 340.725 169.066C329.313 157.655 313.377 155.09 305.13 163.337C296.883 171.584 299.448 187.52 310.859 198.931ZM209.629 235.26C227.551 253.182 253.953 255.836 268.6 241.189C283.246 226.543 280.591 200.141 262.669 182.219C244.748 164.297 218.346 161.642 203.699 176.289C189.052 190.936 191.707 217.338 209.629 235.26ZM52.7747 51.7359C39.4994 72.5946 42.2838 98.1251 58.993 108.759C75.7021 119.393 100.009 111.105 113.284 90.2463C126.559 69.3876 123.776 43.8577 107.067 33.2234C90.3574 22.589 66.05 30.8772 52.7747 51.7359ZM97.9729 181.578C109.384 192.99 129.341 191.535 142.546 178.329C155.752 165.124 157.206 145.167 145.795 133.756C134.384 122.345 114.428 123.8 101.223 137.006C88.017 150.211 86.562 170.167 97.9729 181.578ZM116.932 227.251C105.654 251.4 110.031 277.291 126.707 285.078C143.384 292.866 166.045 279.602 177.322 255.453C188.599 231.304 184.223 205.414 167.547 197.626C150.871 189.839 128.209 203.102 116.932 227.251ZM26.2762 167.635C33.1665 174.525 45.2165 173.646 53.1904 165.673C61.1641 157.699 62.0425 145.649 55.1522 138.759C48.2619 131.869 36.2125 132.747 28.2386 140.721C20.2648 148.695 19.3859 160.745 26.2762 167.635Z" fill="#DBF7F8" fill-opacity="0.1"/>
<path d="M281.827 60.7963C284.314 67.1223 286.333 73.5464 287.894 80.0255C280.727 81.1675 275.297 86.5956 275.297 93.1196C275.297 100.473 282.196 106.435 290.706 106.435C291.055 106.435 291.401 106.423 291.743 106.403C292.318 117.123 291.71 127.827 289.972 138.323C285.008 140.021 280.135 142.866 275.814 146.829C262.063 159.441 259.106 178.595 269.209 189.61C269.618 190.056 270.044 190.481 270.482 190.887C264.548 200.642 257.435 209.772 249.204 218.038C242.04 210.939 229.662 209.724 219.208 215.759C207.163 222.713 202.177 236.694 207.899 247.197C190.471 255.477 172.098 260.029 153.751 261.111C150.534 252.115 140.833 245.578 129.365 245.578C119.996 245.578 111.808 249.942 107.369 256.445C101.176 254.805 95.0908 252.762 89.1538 250.328C92.2284 248.296 94.8198 245.627 96.7105 242.352C104.527 228.814 97.4347 210.087 80.8699 200.523C64.3049 190.959 44.5392 194.181 36.7231 207.719C35.9718 209.02 35.3603 210.37 34.8797 211.754C28.4958 204.519 22.7317 196.547 17.7212 187.869C8.65232 172.161 2.81566 155.475 -8.90413e-05 138.579C1.33252 138.8 2.68755 138.914 4.06091 138.914C23.6042 138.914 39.4477 115.971 39.4478 87.6704C39.4478 66.4971 30.579 48.3238 17.9282 40.5126C27.8407 23.4295 41.3107 8.16667 58.0053 -4.06006C67.7439 10.097 81.8633 17.7852 94.8421 14.3075C110.265 10.175 119.198 -8.41725 117.56 -30.0116C122.946 -31.0346 128.359 -31.7492 133.773 -32.1594C135.758 -15.4078 147.54 -2.54011 161.781 -2.54011C174.2 -2.54019 184.751 -12.3274 188.563 -25.9426C216.027 -17.4214 241.061 -0.869419 259.822 22.6818C248.642 29.9791 244.291 43.545 250.142 53.6804C255.994 63.8158 269.918 66.8297 281.827 60.7963ZM66.5424 144.307C60.4528 133.76 45.6221 130.923 33.4164 137.97C21.2108 145.017 16.2522 159.279 22.3412 169.826C28.4307 180.373 43.2619 183.211 55.4677 176.164C67.6734 169.117 72.6318 154.854 66.5424 144.307ZM158.439 185.245C178.025 165.66 182.938 138.818 169.413 125.293C155.888 111.767 129.047 116.681 109.461 136.266C89.8747 155.852 84.9611 182.694 98.4864 196.219C112.012 209.744 138.853 204.831 158.439 185.245ZM113.271 91.1802C107.181 80.6332 92.3502 77.7956 80.1444 84.8426C67.9387 91.8896 62.9805 106.153 69.0697 116.7C75.1591 127.247 89.9904 130.084 102.196 123.037C114.402 115.99 119.36 101.727 113.271 91.1802ZM192.102 222.745C192.102 210.566 180.677 200.693 166.583 200.693C152.489 200.693 141.063 210.566 141.063 222.745C141.063 234.923 152.489 244.796 166.583 244.796C180.677 244.796 192.102 234.923 192.102 222.745ZM80.0311 35.4882C73.9417 24.9413 62.8255 19.9587 55.203 24.3596C47.5808 28.7606 46.3383 40.8783 52.4274 51.4252C58.5167 61.9722 69.6321 66.9549 77.2547 62.5543C84.8773 58.1534 86.1205 46.0354 80.0311 35.4882ZM160.918 28.7784C151.355 12.2138 132.627 5.12197 119.089 12.9379C105.552 20.7539 102.33 40.5182 111.893 57.0831C121.457 73.6481 140.185 80.7406 153.723 72.9245C167.26 65.1084 170.482 45.3434 160.918 28.7784ZM239.412 193.198C253.164 180.586 256.121 161.431 246.018 150.416C235.915 139.4 216.576 140.694 202.825 153.306C189.074 165.919 186.117 185.073 196.22 196.089C206.323 207.104 225.661 205.81 239.412 193.198ZM231.826 89.7195C225.737 79.1723 210.906 76.3349 198.7 83.3819C186.494 90.429 181.536 104.692 187.625 115.239C193.715 125.786 208.546 128.624 220.752 121.577C232.957 114.53 237.916 100.267 231.826 89.7195ZM226.926 52.7227C239.864 37.3216 241.731 17.5936 231.096 8.65934C220.46 -0.274909 201.35 4.96748 188.413 20.3685C175.475 35.7695 173.609 55.497 184.244 64.4313C194.879 73.3656 213.989 68.1235 226.926 52.7227ZM281.367 113.887C277.69 107.519 268.734 105.806 261.364 110.06C253.994 114.316 251 122.928 254.676 129.297C258.353 135.666 267.309 137.379 274.68 133.123C282.05 128.868 285.044 120.256 281.367 113.887Z" fill="#D9D9D9" fill-opacity="0.2"/>
</svg>
