<svg width="75" height="75" viewBox="0 0 75 75" fill="none" xmlns="http://www.w3.org/2000/svg">
    <path id="part_10_percents_2" fill-rule="evenodd" clip-rule="evenodd" d="M51.9777 50.1466C51.3823 50.8244 50.7469 51.4528 50.0772 52.0306C49.507 51.2552 48.5377 50.9447 47.7684 51.3408C46.9009 51.7874 46.6164 52.9633 47.1333 53.9672C47.1544 54.0083 47.1771 54.0481 47.2002 54.0872C45.9705 54.8063 44.6707 55.3848 43.3267 55.8173C42.825 55.3349 42.1935 54.9329 41.4636 54.6639C39.1404 53.8077 36.7009 54.6223 36.015 56.4833C35.9874 56.5584 35.9649 56.6346 35.9437 56.7107C34.4317 56.6033 32.9224 56.3178 31.4467 55.8487C31.8483 54.5727 31.2401 53.0395 29.8936 52.1731C28.3418 51.1747 26.391 51.436 25.4994 52.7487C23.4634 51.1954 21.8111 49.3036 20.5689 47.2045C21.4337 46.2784 21.615 44.7379 20.9189 43.3857C20.35 42.2808 19.3382 41.5801 18.3018 41.4511C18.119 40.6207 17.9907 39.7784 17.9172 38.9299C18.3435 39.1689 18.8151 39.3133 19.316 39.3375C21.3878 39.4372 23.166 37.4628 23.2881 34.9278C23.4102 32.3928 21.83 30.2567 19.7583 30.1568C19.5593 30.1472 19.3628 30.1571 19.1704 30.1845C19.6361 28.992 20.2261 27.8274 20.9455 26.7093C22.2477 24.6854 23.8624 22.9843 25.6846 21.6259C25.7394 21.7961 25.8078 21.9629 25.8911 22.1246C27.0782 24.4299 30.7472 24.9052 34.0857 23.1863C36.5833 21.9002 38.1886 19.7504 38.3418 17.7837C40.9597 17.9155 43.5786 18.5786 46.0354 19.8059C44.9574 21.8144 44.9064 23.9456 46.1047 25.2653C47.5289 26.8335 50.2641 26.7577 52.7119 25.2533C53.1601 25.8269 53.5743 26.4218 53.9518 27.036C52.096 28.2876 51.2933 30.459 52.1583 32.139C52.9126 33.6037 54.7073 34.2529 56.5446 33.876C57.2078 37.6338 56.7758 41.5924 55.1368 45.2365C53.5971 44.3615 51.7334 44.6721 50.8933 45.9776C50.0532 47.2833 50.5431 49.108 51.9777 50.1466ZM29.0498 29.823C29.9241 28.464 29.3579 26.5422 27.7852 25.5303C26.2125 24.5185 24.2287 24.7997 23.3544 26.1587C22.4801 27.5176 23.0464 29.4395 24.619 30.4514C26.1917 31.4632 28.1754 31.182 29.0498 29.823ZM29.8023 43.1507C33.3025 44.2716 36.7676 43.2207 37.5416 40.8036C38.3154 38.3865 36.1051 35.5186 32.605 34.3978C29.105 33.2771 25.6402 34.3276 24.8661 36.7445C24.092 39.1616 26.3021 42.0298 29.8023 43.1507ZM38.1554 32.1088C39.0297 30.7498 38.4638 28.8275 36.8911 27.8156C35.3184 26.8038 33.3344 27.0854 32.46 28.4444C31.5858 29.8033 32.152 31.7252 33.7246 32.7371C35.2972 33.7489 37.2809 33.4676 38.1554 32.1088ZM27.4229 49.3994C28.8596 48.6597 29.3306 46.7124 28.4745 45.0497C27.6185 43.387 25.7598 42.6388 24.3231 43.3785C22.8863 44.1182 22.4158 46.0659 23.2719 47.7285C24.128 49.391 25.9862 50.1391 27.4229 49.3994ZM42.7063 24.8044C43.5806 23.4455 43.4933 21.8319 42.5113 21.1999C41.5291 20.568 40.024 21.1571 39.1497 22.5161C38.2753 23.8751 38.3629 25.489 39.3451 26.1209C40.3273 26.7527 41.832 26.1634 42.7063 24.8044ZM48.4113 33.9396C49.7845 31.8052 49.4836 29.165 47.7393 28.0427C45.995 26.9204 43.4675 27.7408 42.0943 29.8752C40.721 32.0096 41.0219 34.6498 42.7663 35.7721C44.5106 36.8943 47.0381 36.0739 48.4113 33.9396ZM33.7823 53.186C36.1053 54.0421 38.5445 53.2278 39.2305 51.367C39.9164 49.5061 38.5892 47.3028 36.2661 46.4466C33.943 45.5905 31.5038 46.4054 30.818 48.2663C30.1321 50.1273 31.4592 52.3298 33.7823 53.186ZM45.5288 46.0058C46.4032 44.6469 45.8372 42.7246 44.2645 41.7127C42.6918 40.7009 40.7078 40.9825 39.8335 42.3415C38.9592 43.7004 39.5254 45.6223 41.0981 46.6342C42.6707 47.646 44.6544 47.3648 45.5288 46.0058ZM49.5958 43.1806C52.1985 43.7714 54.6392 42.7933 55.0472 40.996C55.455 39.1987 53.6758 37.2629 51.0733 36.6721C48.4706 36.0813 46.0298 37.0594 45.6218 38.8567C45.2139 40.654 46.9931 42.5898 49.5958 43.1806ZM45.6871 53.3179C46.2149 52.4973 45.8729 51.337 44.9233 50.726C43.9738 50.115 42.776 50.2847 42.2479 51.1052C41.72 51.9258 42.0618 53.0866 43.0114 53.6976C43.9611 54.3085 45.1592 54.1385 45.6871 53.3179Z" fill="white" fill-opacity="0.3"/>
    <path id="part_10_percents_1" fill-rule="evenodd" clip-rule="evenodd" d="M58.1607 34.8334C58.2698 35.7964 58.3106 36.7555 58.2865 37.7055C57.258 37.5988 56.3111 38.1455 56.0705 39.0434C55.7992 40.0559 56.5289 41.1313 57.7006 41.4453C57.7485 41.4581 57.7965 41.4688 57.8444 41.4787C57.5281 42.9759 57.0495 44.4275 56.4228 45.8087C55.6767 45.8593 54.901 46.0712 54.1599 46.4574C51.8013 47.6865 50.6873 50.215 51.6719 52.1044C51.7117 52.1807 51.756 52.2536 51.8013 52.3254C50.6239 53.4503 49.3069 54.4444 47.8681 55.2792C47.1432 54.0383 45.4847 53.4147 43.8233 53.8598C41.9085 54.3729 40.7075 56.1131 41.1075 57.7702C38.4019 58.2676 35.7041 58.2153 33.1375 57.6873C33.0256 56.3307 31.9314 55.0739 30.3533 54.651C29.0637 54.3055 27.7758 54.604 26.9248 55.3351C26.1323 54.8807 25.3698 54.3745 24.6419 53.8202C25.1399 53.6538 25.5953 53.383 25.9762 53.0021C27.5518 51.4265 27.2658 48.5864 25.338 46.6585C23.4101 44.7307 20.5701 44.4446 18.9945 46.0201C18.8431 46.1714 18.7091 46.3348 18.5919 46.5076C17.9799 45.276 17.4798 43.9658 17.1102 42.5861C16.4411 40.0889 16.2544 37.5761 16.49 35.146C16.665 35.2253 16.847 35.2914 17.0358 35.3419C19.7265 36.0628 22.7542 33.4882 23.7982 29.5917C24.5793 26.6766 24.0289 23.8474 22.5755 22.3052C24.5709 20.3184 26.9896 18.7146 29.74 17.6471C30.5587 19.9549 32.2168 21.5347 34.1318 21.5347C36.4075 21.5347 38.3226 19.3047 38.8939 16.2715C39.6738 16.3294 40.446 16.4296 41.2071 16.5729C40.8623 18.9527 42.0093 21.1593 43.9701 21.6847C45.6798 22.1426 47.4921 21.1841 48.5194 19.4507C51.9868 21.6372 54.8231 24.8397 56.5374 28.7749C54.7295 29.3675 53.6306 31.0739 54.0621 32.6849C54.4938 34.296 56.2987 35.2242 58.1607 34.8334ZM25.4394 38.3897C24.9901 36.7129 23.0527 35.7753 21.1122 36.2952C19.1717 36.8153 17.9627 38.5959 18.412 40.2727C18.8613 41.9495 20.7987 42.8871 22.7392 42.3672C24.6797 41.8473 25.8886 40.0666 25.4394 38.3897ZM36.5821 47.4165C40.0013 45.4424 41.668 41.9277 40.3047 39.5665C38.9414 37.2055 35.0643 36.8921 31.6452 38.8662C28.2262 40.8403 26.5593 44.3545 27.9223 46.7156C29.2856 49.0768 33.1628 49.3906 36.5821 47.4165ZM33.8332 32.799C33.3839 31.1222 31.4464 30.184 29.5059 30.7039C27.5654 31.2239 26.3565 33.0052 26.8058 34.682C27.2552 36.3586 29.1926 37.2963 31.133 36.7765C33.0734 36.2565 34.2823 34.4758 33.8332 32.799ZM39.8331 53.8216C40.2824 52.1448 39.0738 50.3639 37.1333 49.8439C35.1928 49.3239 33.2554 50.2617 32.8061 51.9385C32.3568 53.6153 33.5659 55.3961 35.5064 55.9161C37.4468 56.4359 39.3837 55.4983 39.8331 53.8216ZM31.3109 23.9046C30.8616 22.2278 29.5153 21.1319 28.3035 21.4564C27.0916 21.7812 26.4732 23.4036 26.9224 25.0805C27.3718 26.7573 28.7186 27.8531 29.9304 27.5284C31.1422 27.2036 31.7602 25.5813 31.3109 23.9046ZM42.696 25.9649C41.9904 23.3314 39.6734 21.6639 37.5211 22.2406C35.3688 22.8173 34.1959 25.4198 34.9016 28.0534C35.6073 30.687 37.9242 32.3544 40.0765 31.7777C42.2288 31.201 43.4017 28.5984 42.696 25.9649ZM47.4372 51.4988C49.7958 50.2696 50.9098 47.7417 49.9253 45.8523C48.9407 43.9628 46.23 43.4271 43.8713 44.6563C41.5127 45.8855 40.3992 48.4138 41.3839 50.3032C42.3685 52.1926 45.0786 52.7279 47.4372 51.4988ZM50.2103 36.9715C49.761 35.2947 47.8235 34.3565 45.883 34.8765C43.9425 35.3965 42.7337 37.1777 43.183 38.8545C43.6323 40.5312 45.5697 41.4689 47.5101 40.949C49.4506 40.4291 50.6596 38.6483 50.2103 36.9715ZM50.9006 31.6968C53.2501 30.0536 54.235 27.4061 53.1003 25.7836C51.9655 24.1614 49.1411 24.1783 46.7917 25.8214C44.4421 27.4645 43.4573 30.112 44.592 31.7345C45.7267 33.3569 48.5511 33.3399 50.9006 31.6968ZM56.1398 42.1264C55.8684 41.1141 54.6985 40.5481 53.5269 40.862C52.3552 41.1759 51.6251 42.251 51.8963 43.2635C52.1676 44.276 53.3376 44.8425 54.5093 44.5285C55.681 44.2145 56.4111 43.1389 56.1398 42.1264Z" fill="white" fill-opacity="0.2"/>
    <path id="part_20_percents" fill-rule="evenodd" clip-rule="evenodd" d="M43.6336 13.7872C44.7119 14.0825 45.7568 14.4493 46.764 14.8818C46.2096 15.9378 46.3898 17.1861 47.2486 17.8282C48.217 18.5522 49.6813 18.2308 50.5192 17.1101C50.5534 17.0643 50.5854 17.0174 50.6165 16.9704C52.0849 17.9501 53.435 19.0841 54.6462 20.3465C54.3811 21.1673 54.276 22.089 54.3725 23.0481C54.6796 26.1008 56.9111 28.3763 59.3565 28.1303C59.4552 28.1204 59.5523 28.1041 59.6486 28.0864C60.3496 29.829 60.8507 31.6653 61.1291 33.5638C59.4896 33.8091 58.1118 35.3187 57.8774 37.2889C57.6074 39.5596 58.9574 41.591 60.9036 41.8717C60.2783 44.9829 59.0676 47.8503 57.4034 50.3735C55.9024 49.9127 54.0879 50.5469 52.9593 52.0563C52.0372 53.2897 51.8058 54.7972 52.2246 56.0216C51.3987 56.676 50.5301 57.2761 49.6248 57.8186C49.6596 57.2139 49.5645 56.6101 49.3195 56.0391C48.3062 53.677 45.1416 52.7677 42.2513 54.0075C39.361 55.2474 37.8391 58.1672 38.8522 60.5293C38.9495 60.7562 39.0672 60.9697 39.2021 61.1691C37.6209 61.2975 36.0034 61.2724 34.3673 61.0778C31.4059 60.7257 28.6344 59.8501 26.1322 58.5576C26.2921 58.404 26.4407 58.2373 26.5757 58.0568C28.4995 55.4831 27.0376 51.1379 23.3107 48.3517C20.5225 46.2674 17.2563 45.6459 14.9822 46.5427C13.7081 43.5548 13.0254 40.2775 13.0592 36.8744C15.8817 36.9853 18.2837 35.8853 19.1034 33.8341C20.0774 31.3965 18.5083 28.3905 15.5039 26.4802C15.8997 25.6696 16.3375 24.8853 16.8169 24.1314C19.2185 25.5194 22.073 25.2352 23.4751 23.3597C24.6974 21.7244 24.4464 19.3728 23.0294 17.5305C26.8557 14.7522 31.5 13.0848 36.4491 12.9329C36.31 15.123 37.6675 17.0306 39.5779 17.2579C41.4884 17.4851 43.2552 15.949 43.6336 13.7872ZM33.4374 50.3596C31.4489 50.1232 29.6153 51.7971 29.3417 54.0983C29.0681 56.3994 30.458 58.4567 32.4465 58.6932C34.4349 58.9296 36.2685 57.2556 36.5422 54.9545C36.8158 52.6533 35.4258 50.5962 33.4374 50.3596ZM47.876 42.2876C47.2249 37.78 44.1735 34.4903 41.0607 34.9399C37.9481 35.3898 35.953 39.4086 36.604 43.9161C37.2552 48.4234 40.306 51.7131 43.4186 51.2637C46.5314 50.8141 48.5271 46.7952 47.876 42.2876ZM31.0416 38.9754C29.053 38.7389 27.2188 40.4128 26.9451 42.714C26.6716 45.0151 28.0622 47.0725 30.0506 47.3089C32.039 47.5452 33.8727 45.8713 34.1464 43.5703C34.42 41.2692 33.0299 39.212 31.0416 38.9754ZM56.1285 41.5467C54.5247 40.3477 52.0997 40.8801 50.7121 42.7361C49.3246 44.5922 49.4998 47.0688 51.1037 48.2679C52.7075 49.4669 55.1326 48.934 56.5201 47.0779C57.9075 45.2219 57.7322 42.7458 56.1285 41.5467ZM20.4345 37.8701C18.4461 37.6337 16.6958 38.6067 16.5248 40.0437C16.3539 41.4808 17.8272 42.8378 19.8156 43.0742C21.8041 43.3107 23.5545 42.3371 23.7254 40.9C23.8961 39.4629 22.4229 38.1066 20.4345 37.8701ZM27.5146 26.5566C24.3916 26.1852 21.6137 27.9534 21.3102 30.5057C21.0067 33.0581 23.2924 35.4283 26.4155 35.7997C29.5386 36.1711 32.3164 34.4029 32.6199 31.8506C32.9234 29.2983 30.6376 26.9279 27.5146 26.5566ZM56.8952 32.4072C56.5881 29.3547 54.3571 27.0793 51.9118 27.3251C49.4664 27.5711 47.7323 30.2455 48.0394 33.2981C48.3466 36.3507 50.5782 38.6256 53.0235 38.3796C55.4689 38.1336 57.2022 35.4598 56.8952 32.4072ZM42.521 23.2186C40.5325 22.9821 38.6982 24.656 38.4246 26.9572C38.151 29.2583 39.5416 31.3157 41.53 31.5521C43.5184 31.7885 45.3521 30.1146 45.6258 27.8135C45.8994 25.5123 44.5094 23.4551 42.521 23.2186ZM37.1662 20.2215C36.4118 17.0014 33.9974 14.8132 31.7738 15.3342C29.5503 15.8554 28.3595 18.8881 29.1139 22.108C29.8684 25.3281 32.2827 27.5162 34.5064 26.9952C36.7299 26.4742 37.9207 23.4415 37.1662 20.2215ZM50.5807 19.0736C49.3801 18.931 48.2731 19.9419 48.1079 21.3312C47.9427 22.7207 48.7818 23.9629 49.9824 24.1058C51.1831 24.2486 52.2907 23.2378 52.4559 21.8483C52.6211 20.4588 51.7814 19.2164 50.5807 19.0736Z" fill="white" fill-opacity="0.2"/>
    <path id="part_30_percents_main_color" fill-rule="evenodd" clip-rule="evenodd" d="M29.9151 9.54162C31.1894 9.20584 32.4717 8.96265 33.7545 8.80862C33.8129 10.2132 34.7343 11.3799 35.9894 11.5274C37.4049 11.6936 38.7085 10.5008 38.9009 8.86281C38.9088 8.79588 38.9137 8.72911 38.9176 8.66285C40.9941 8.79447 43.0409 9.15341 45.0222 9.72541C45.2367 10.7192 45.674 11.7213 46.339 12.6425C48.4557 15.5745 52.0761 16.5769 54.4248 14.8813C54.5196 14.8129 54.609 14.7389 54.6968 14.6639C56.4412 16.0271 58.0372 17.6038 59.4428 19.3758C57.9156 20.5945 57.4022 22.9482 58.3272 25.0961C59.3933 27.5715 61.9702 28.8458 64.1211 27.9822C65.3214 31.5247 65.7806 35.1646 65.574 38.7212C63.7708 39.138 62.2948 40.8568 62.0356 43.063C61.8238 44.8658 62.4783 46.5399 63.629 47.5413C63.1732 48.6967 62.6418 49.8219 62.039 50.91C61.7173 50.2727 61.2636 49.7131 60.6763 49.2754C58.2473 47.465 54.4825 48.4072 52.2672 51.3793C50.0519 54.3514 50.2246 58.2285 52.6534 60.039C52.8867 60.2129 53.1329 60.3612 53.3883 60.4849C51.8515 61.55 50.1869 62.48 48.4033 63.2482C45.1749 64.6385 41.831 65.383 38.5153 65.543C38.5877 65.2919 38.6408 65.0341 38.6718 64.7703C39.1134 61.0087 35.0553 57.4407 29.6081 56.8009C25.533 56.3223 21.8346 57.6181 20.0451 59.8763C16.9804 57.5816 14.348 54.6424 12.3719 51.1516C15.3161 49.5972 17.116 47.0562 16.7402 44.4799C16.2935 41.4183 12.9173 39.2795 8.72438 39.1062C8.64915 38.0456 8.63238 36.987 8.67587 35.935C11.9453 35.9317 14.6887 33.9554 15.0107 31.2143C15.2912 28.8243 13.6459 26.5741 11.1123 25.5323C13.3733 20.4381 17.125 15.9937 22.0829 12.9149C23.235 15.2308 25.7464 16.3743 27.8291 15.4776C29.9119 14.5805 30.8064 11.97 29.9151 9.54162ZM41.1227 52.866C38.9549 53.7996 38.0737 56.5901 39.1542 59.0988C40.2347 61.6074 42.8677 62.8845 45.0354 61.9509C47.2031 61.0172 48.0842 58.2266 47.0039 55.718C45.9235 53.2094 43.2904 51.9325 41.1227 52.866ZM51.0798 36.103C47.7527 31.8904 42.697 30.338 39.7879 32.6355C36.8791 34.9332 37.2186 40.2108 40.5455 44.4234C43.8726 48.6357 48.9276 50.1885 51.8367 47.8912C54.7458 45.5936 54.4069 40.3157 51.0798 36.103ZM31.9534 42.6706C29.7856 43.6042 28.9037 46.395 29.9842 48.9037C31.0647 51.4123 33.6984 52.689 35.8662 51.7554C38.0336 50.8217 38.9149 48.0311 37.8346 45.5226C36.7542 43.0141 34.1211 41.7372 31.9534 42.6706ZM59.0589 30.4719C56.7148 30.1966 54.556 32.1721 54.2374 34.8849C53.9187 37.5977 55.5607 40.0201 57.9048 40.2955C60.249 40.5708 62.4074 38.5946 62.7261 35.8818C63.0446 33.1692 61.4029 30.7473 59.0589 30.4719ZM20.4822 47.8099C18.3145 48.7435 17.1043 50.7699 17.7789 52.3366C18.4536 53.9032 20.7578 54.4168 22.9256 53.4832C25.0934 52.5496 26.3034 50.5225 25.6286 48.9558C24.9537 47.3893 22.6499 46.8763 20.4822 47.8099ZM21.0193 32.0882C17.6147 33.5545 15.8262 36.9991 17.0245 39.7815C18.2228 42.564 21.9545 43.631 25.3591 42.1647C28.7637 40.6984 30.5523 37.2539 29.3539 34.4714C28.1555 31.689 24.4239 30.6219 21.0193 32.0882ZM54.4412 20.6975C52.3246 17.7656 48.7049 16.7631 46.3562 18.4584C44.0075 20.154 43.8189 23.9061 45.9356 26.8381C48.0523 29.7699 51.6723 30.7717 54.021 29.0762C56.3697 27.3806 56.5578 23.6295 54.4412 20.6975ZM34.3523 19.8182C32.1846 20.7518 31.3027 23.5426 32.3831 26.0513C33.4636 28.5599 36.0973 29.8366 38.2651 28.903C40.4327 27.9693 41.3139 25.1788 40.2336 22.6702C39.1531 20.1616 36.5201 18.8846 34.3523 19.8182ZM27.1203 19.9249C24.4484 17.0865 20.6933 16.2811 18.7332 18.1262C16.7734 19.9714 17.3505 23.7679 20.0222 26.6062C22.6941 29.4447 26.4493 30.25 28.4094 28.4049C30.3694 26.5598 29.7921 22.7633 27.1203 19.9249ZM40.1237 10.829C38.815 11.3929 38.2831 13.0779 38.9354 14.5925C39.5878 16.1072 41.1775 16.8784 42.4864 16.3149C43.7954 15.7512 44.3278 14.0659 43.6754 12.5511C43.023 11.0363 41.4326 10.2653 40.1237 10.829Z" fill="currentColor" fill-opacity="0.5"/>
    <path id="part_30_percents" fill-rule="evenodd" clip-rule="evenodd" d="M41.7474 6.98907C43.1386 7.19793 44.4987 7.50102 45.8214 7.89169C45.2856 9.29361 45.6963 10.8266 46.8647 11.5013C48.1824 12.262 49.9643 11.643 50.8447 10.1181C50.8807 10.0558 50.9137 9.99243 50.9456 9.92913C52.926 10.9351 54.7814 12.1514 56.4824 13.5489C56.2731 14.6139 56.2787 15.7812 56.5418 16.9653C57.379 20.734 60.5055 23.2457 63.5245 22.575C63.6464 22.5479 63.7653 22.5132 63.883 22.4767C65.0178 24.55 65.9168 26.77 66.5468 29.101C64.5346 29.651 63.0373 31.742 63.0372 34.2386C63.0372 37.116 65.0258 39.4537 67.4994 39.5153C67.1803 43.4956 66.0935 47.2585 64.389 50.6586C62.4449 50.3058 60.2719 51.3678 59.086 53.4215C58.1171 55.0997 58.0518 57.0176 58.7572 58.4854C57.8224 59.4258 56.8262 60.3047 55.7756 61.117C55.7293 60.3563 55.5207 59.616 55.1298 58.9389C53.5126 56.1379 49.4233 55.4719 45.996 57.4506C42.5688 59.4293 41.1009 63.3037 42.7178 66.1047C42.8731 66.3737 43.0519 66.623 43.2501 66.8522C41.2934 67.2476 39.2685 67.4565 37.1953 67.4565C33.4427 67.4564 29.8496 66.7742 26.531 65.5309C26.7079 65.3153 26.8689 65.0849 27.0107 64.8393C29.0322 61.3375 26.5599 56.1254 21.489 53.1977C17.6954 51.0076 13.5219 50.7163 10.8136 52.1748C8.77773 48.6306 7.43779 44.637 6.97437 40.3798C10.5176 40.099 13.3554 38.3676 14.0749 35.6828C14.9298 32.4922 12.5226 28.9693 8.48465 27.0288C8.85877 25.9571 9.28935 24.912 9.77628 23.8989C12.9833 25.2763 16.5079 24.4971 17.9811 21.9453C19.2655 19.7204 18.6025 16.8192 16.5582 14.7278C20.9264 10.6877 26.4819 7.91425 32.6433 6.98907C32.7949 9.74636 34.7745 11.9282 37.1953 11.9284C39.6163 11.9284 41.5958 9.74649 41.7474 6.98907ZM34.4409 54.2021C31.9211 54.2021 29.8787 56.5661 29.8787 59.4821C29.8788 62.3981 31.9212 64.7622 34.4409 64.7622C36.9606 64.7621 39.003 62.398 39.0031 59.4821C39.0031 56.5661 36.9606 54.2021 34.4409 54.2021ZM51.2829 41.9706C49.7996 36.435 45.498 32.7779 41.6754 33.8022C37.853 34.8267 35.9571 40.1448 37.4403 45.6802C38.9236 51.2155 43.2245 54.8727 47.047 53.8486C50.8696 52.8244 52.7661 47.5062 51.2829 41.9706ZM29.7558 40.3332C27.236 40.3332 25.1927 42.6972 25.1927 45.6133C25.1928 48.5292 27.236 50.8933 29.7558 50.8933C32.2754 50.8931 34.3179 48.5291 34.318 45.6133C34.318 42.6973 32.2754 40.3334 29.7558 40.3332ZM61.4845 39.8187C59.3023 38.5588 56.3514 39.5843 54.8933 42.1096C53.4353 44.635 54.0223 47.7036 56.2044 48.9635C58.3867 50.2234 61.3376 49.1972 62.7956 46.6718C64.2534 44.1465 63.6665 41.0787 61.4845 39.8187ZM16.3378 40.5281C13.8181 40.5281 11.7758 42.004 11.7756 43.825C11.7756 45.6461 13.818 47.1227 16.3378 47.1227C18.8576 47.1227 20.9 45.6461 20.9 43.825C20.8998 42.004 18.8575 40.5281 16.3378 40.5281ZM23.5036 25.3396C19.5462 25.3396 16.3379 27.9618 16.3378 31.196C16.3378 34.4303 19.5461 37.0524 23.5036 37.0524C27.4611 37.0524 30.6694 34.4303 30.6694 31.196C30.6693 27.9618 27.4611 25.3396 23.5036 25.3396ZM61.0845 28.2848C60.2472 24.5162 57.1215 22.0046 54.1026 22.675C51.0836 23.3457 49.3142 26.9451 50.1514 30.7138C50.9888 34.4824 54.1152 36.9934 57.1342 36.3227C60.1531 35.652 61.9217 32.0535 61.0845 28.2848ZM41.7584 18.9392C39.2386 18.9392 37.1953 21.3032 37.1953 24.2192C37.1954 27.1352 39.2387 29.4993 41.7584 29.4993C44.2781 29.4992 46.3206 27.1351 46.3206 24.2192C46.3206 21.3032 44.2781 18.9393 41.7584 18.9392ZM34.6223 15.9898C33.2011 12.0783 29.8592 9.70288 27.1581 10.6843C24.4573 11.6659 23.4199 15.6322 24.841 19.5434C26.2622 23.4549 29.6041 25.8303 32.3051 24.8489C35.0061 23.8675 36.0434 19.9011 34.6223 15.9898ZM51.2134 12.5624C49.692 12.5626 48.459 13.9901 48.4589 15.7508C48.4589 17.5114 49.692 18.9389 51.2134 18.9392C52.7349 18.9392 53.9687 17.5116 53.9687 15.7508C53.9686 13.99 52.7349 12.5624 51.2134 12.5624Z" fill="white" fill-opacity="0.2"/>
</svg>