<svg width="446" height="446" viewBox="0 0 446 446" fill="none" xmlns="http://www.w3.org/2000/svg">
<path fill-rule="evenodd" clip-rule="evenodd" d="M128.906 74C137.719 74 144.863 81.1495 144.863 89.9688V198.206C144.863 198.921 145.072 199.34 145.294 199.618C145.552 199.942 145.965 200.235 146.494 200.392C147.023 200.549 147.529 200.528 147.922 200.398C148.259 200.286 148.663 200.049 149.053 199.45L220.964 88.8649C227.258 79.1861 241.42 79.1861 247.714 88.8649L308.425 182.229L309.955 184.547C314.475 183.857 319.103 183.5 323.815 183.5C374.175 183.5 415 224.354 415 274.75C415 325.146 374.175 366 323.815 366C273.454 366 232.629 325.146 232.629 274.75C232.629 259.469 236.383 245.066 243.018 232.413L241.141 229.49L236.249 221.966C235.35 220.584 233.328 220.584 232.429 221.966L146.454 354.178C143.51 358.706 138.477 361.438 133.079 361.438H55.9574C47.1444 361.438 40 354.288 40 345.469V89.9688C40 81.1495 47.1444 74 55.9574 74H128.906ZM323.815 204.031C284.785 204.031 253.146 235.693 253.146 274.75C253.146 313.807 284.785 345.469 323.815 345.469C362.844 345.469 394.483 313.807 394.483 274.75C394.483 235.693 362.844 204.031 323.815 204.031ZM60.5167 340.906H130.605L215.231 210.768C224.223 196.941 244.455 196.941 253.446 210.768L255.645 214.149C264.8 203.843 276.251 195.626 289.198 190.306L234.338 105.941L166.25 210.648C153.877 229.676 124.347 220.908 124.347 198.206V94.5312H60.5167V340.906Z" fill="black"/>
</svg>
